<?xml version="1.0" encoding="UTF-8" standalone="no"?>
<!DOCTYPE svg PUBLIC "-//W3C//DTD SVG 1.1//EN"
 "http://www.w3.org/Graphics/SVG/1.1/DTD/svg11.dtd">
<!-- Generated by graphviz version 8.0.1 (20230327.1645)
 -->
<!-- Title: G Pages: 1 -->
<svg width="417pt" height="848pt"
 viewBox="0.00 0.00 313.00 636.00" xmlns="http://www.w3.org/2000/svg" xmlns:xlink="http://www.w3.org/1999/xlink">
<g id="graph0" class="graph" transform="scale(1.33333 1.33333) rotate(0) translate(4 632)">
<title>G</title>
<polygon fill="white" stroke="none" points="-4,4 -4,-632 309,-632 309,4 -4,4"/>
<!-- 1174129375600 -->
<g id="node1" class="node">
<title>1174129375600</title>
<polygon fill="none" stroke="black" points="22,-581.5 22,-627.5 283,-627.5 283,-581.5 22,-581.5"/>
<text text-anchor="middle" x="78.5" y="-612.3" font-family="Times New Roman,serif" font-size="14.00">embedding_input</text>
<polyline fill="none" stroke="black" points="22,-604.5 135,-604.5"/>
<text text-anchor="middle" x="78.5" y="-589.3" font-family="Times New Roman,serif" font-size="14.00">InputLayer</text>
<polyline fill="none" stroke="black" points="135,-581.5 135,-627.5"/>
<text text-anchor="middle" x="163" y="-612.3" font-family="Times New Roman,serif" font-size="14.00">input:</text>
<polyline fill="none" stroke="black" points="135,-604.5 191,-604.5"/>
<text text-anchor="middle" x="163" y="-589.3" font-family="Times New Roman,serif" font-size="14.00">output:</text>
<polyline fill="none" stroke="black" points="191,-581.5 191,-627.5"/>
<text text-anchor="middle" x="237" y="-612.3" font-family="Times New Roman,serif" font-size="14.00">[(None, 150)]</text>
<polyline fill="none" stroke="black" points="191,-604.5 283,-604.5"/>
<text text-anchor="middle" x="237" y="-589.3" font-family="Times New Roman,serif" font-size="14.00">[(None, 150)]</text>
</g>
<!-- 1173752755872 -->
<g id="node2" class="node">
<title>1173752755872</title>
<polygon fill="none" stroke="black" points="29,-498.5 29,-544.5 276,-544.5 276,-498.5 29,-498.5"/>
<text text-anchor="middle" x="69" y="-529.3" font-family="Times New Roman,serif" font-size="14.00">embedding</text>
<polyline fill="none" stroke="black" points="29,-521.5 109,-521.5"/>
<text text-anchor="middle" x="69" y="-506.3" font-family="Times New Roman,serif" font-size="14.00">Embedding</text>
<polyline fill="none" stroke="black" points="109,-498.5 109,-544.5"/>
<text text-anchor="middle" x="137" y="-529.3" font-family="Times New Roman,serif" font-size="14.00">input:</text>
<polyline fill="none" stroke="black" points="109,-521.5 165,-521.5"/>
<text text-anchor="middle" x="137" y="-506.3" font-family="Times New Roman,serif" font-size="14.00">output:</text>
<polyline fill="none" stroke="black" points="165,-498.5 165,-544.5"/>
<text text-anchor="middle" x="220.5" y="-529.3" font-family="Times New Roman,serif" font-size="14.00">(None, 150)</text>
<polyline fill="none" stroke="black" points="165,-521.5 276,-521.5"/>
<text text-anchor="middle" x="220.5" y="-506.3" font-family="Times New Roman,serif" font-size="14.00">(None, 150, 128)</text>
</g>
<!-- 1174129375600&#45;&gt;1173752755872 -->
<g id="edge1" class="edge">
<title>1174129375600&#45;&gt;1173752755872</title>
<path fill="none" stroke="black" d="M152.5,-581.79C152.5,-573.62 152.5,-564.14 152.5,-555.19"/>
<polygon fill="black" stroke="black" points="156,-555.27 152.5,-545.27 149,-555.27 156,-555.27"/>
</g>
<!-- 1173751623440 -->
<g id="node3" class="node">
<title>1173751623440</title>
<polygon fill="none" stroke="black" points="37,-415.5 37,-461.5 268,-461.5 268,-415.5 37,-415.5"/>
<text text-anchor="middle" x="69" y="-446.3" font-family="Times New Roman,serif" font-size="14.00">conv1d</text>
<polyline fill="none" stroke="black" points="37,-438.5 101,-438.5"/>
<text text-anchor="middle" x="69" y="-423.3" font-family="Times New Roman,serif" font-size="14.00">Conv1D</text>
<polyline fill="none" stroke="black" points="101,-415.5 101,-461.5"/>
<text text-anchor="middle" x="129" y="-446.3" font-family="Times New Roman,serif" font-size="14.00">input:</text>
<polyline fill="none" stroke="black" points="101,-438.5 157,-438.5"/>
<text text-anchor="middle" x="129" y="-423.3" font-family="Times New Roman,serif" font-size="14.00">output:</text>
<polyline fill="none" stroke="black" points="157,-415.5 157,-461.5"/>
<text text-anchor="middle" x="212.5" y="-446.3" font-family="Times New Roman,serif" font-size="14.00">(None, 150, 128)</text>
<polyline fill="none" stroke="black" points="157,-438.5 268,-438.5"/>
<text text-anchor="middle" x="212.5" y="-423.3" font-family="Times New Roman,serif" font-size="14.00">(None, 146, 128)</text>
</g>
<!-- 1173752755872&#45;&gt;1173751623440 -->
<g id="edge2" class="edge">
<title>1173752755872&#45;&gt;1173751623440</title>
<path fill="none" stroke="black" d="M152.5,-498.79C152.5,-490.62 152.5,-481.14 152.5,-472.19"/>
<polygon fill="black" stroke="black" points="156,-472.27 152.5,-462.27 149,-472.27 156,-472.27"/>
</g>
<!-- 1173751950640 -->
<g id="node4" class="node">
<title>1173751950640</title>
<polygon fill="none" stroke="black" points="17,-332.5 17,-378.5 288,-378.5 288,-332.5 17,-332.5"/>
<text text-anchor="middle" x="69" y="-363.3" font-family="Times New Roman,serif" font-size="14.00">max_pooling1d</text>
<polyline fill="none" stroke="black" points="17,-355.5 121,-355.5"/>
<text text-anchor="middle" x="69" y="-340.3" font-family="Times New Roman,serif" font-size="14.00">MaxPooling1D</text>
<polyline fill="none" stroke="black" points="121,-332.5 121,-378.5"/>
<text text-anchor="middle" x="149" y="-363.3" font-family="Times New Roman,serif" font-size="14.00">input:</text>
<polyline fill="none" stroke="black" points="121,-355.5 177,-355.5"/>
<text text-anchor="middle" x="149" y="-340.3" font-family="Times New Roman,serif" font-size="14.00">output:</text>
<polyline fill="none" stroke="black" points="177,-332.5 177,-378.5"/>
<text text-anchor="middle" x="232.5" y="-363.3" font-family="Times New Roman,serif" font-size="14.00">(None, 146, 128)</text>
<polyline fill="none" stroke="black" points="177,-355.5 288,-355.5"/>
<text text-anchor="middle" x="232.5" y="-340.3" font-family="Times New Roman,serif" font-size="14.00">(None, 29, 128)</text>
</g>
<!-- 1173751623440&#45;&gt;1173751950640 -->
<g id="edge3" class="edge">
<title>1173751623440&#45;&gt;1173751950640</title>
<path fill="none" stroke="black" d="M152.5,-415.79C152.5,-407.62 152.5,-398.14 152.5,-389.19"/>
<polygon fill="black" stroke="black" points="156,-389.27 152.5,-379.27 149,-389.27 156,-389.27"/>
</g>
<!-- 1174113601760 -->
<g id="node5" class="node">
<title>1174113601760</title>
<polygon fill="none" stroke="black" points="36,-249.5 36,-295.5 269,-295.5 269,-249.5 36,-249.5"/>
<text text-anchor="middle" x="72.5" y="-280.3" font-family="Times New Roman,serif" font-size="14.00">conv1d_1</text>
<polyline fill="none" stroke="black" points="36,-272.5 109,-272.5"/>
<text text-anchor="middle" x="72.5" y="-257.3" font-family="Times New Roman,serif" font-size="14.00">Conv1D</text>
<polyline fill="none" stroke="black" points="109,-249.5 109,-295.5"/>
<text text-anchor="middle" x="137" y="-280.3" font-family="Times New Roman,serif" font-size="14.00">input:</text>
<polyline fill="none" stroke="black" points="109,-272.5 165,-272.5"/>
<text text-anchor="middle" x="137" y="-257.3" font-family="Times New Roman,serif" font-size="14.00">output:</text>
<polyline fill="none" stroke="black" points="165,-249.5 165,-295.5"/>
<text text-anchor="middle" x="217" y="-280.3" font-family="Times New Roman,serif" font-size="14.00">(None, 29, 128)</text>
<polyline fill="none" stroke="black" points="165,-272.5 269,-272.5"/>
<text text-anchor="middle" x="217" y="-257.3" font-family="Times New Roman,serif" font-size="14.00">(None, 25, 128)</text>
</g>
<!-- 1173751950640&#45;&gt;1174113601760 -->
<g id="edge4" class="edge">
<title>1173751950640&#45;&gt;1174113601760</title>
<path fill="none" stroke="black" d="M152.5,-332.79C152.5,-324.62 152.5,-315.14 152.5,-306.19"/>
<polygon fill="black" stroke="black" points="156,-306.27 152.5,-296.27 149,-306.27 156,-306.27"/>
</g>
<!-- 1174113599840 -->
<g id="node6" class="node">
<title>1174113599840</title>
<polygon fill="none" stroke="black" points="0,-166.5 0,-212.5 305,-212.5 305,-166.5 0,-166.5"/>
<text text-anchor="middle" x="72.5" y="-197.3" font-family="Times New Roman,serif" font-size="14.00">global_max_pooling1d</text>
<polyline fill="none" stroke="black" points="0,-189.5 145,-189.5"/>
<text text-anchor="middle" x="72.5" y="-174.3" font-family="Times New Roman,serif" font-size="14.00">GlobalMaxPooling1D</text>
<polyline fill="none" stroke="black" points="145,-166.5 145,-212.5"/>
<text text-anchor="middle" x="173" y="-197.3" font-family="Times New Roman,serif" font-size="14.00">input:</text>
<polyline fill="none" stroke="black" points="145,-189.5 201,-189.5"/>
<text text-anchor="middle" x="173" y="-174.3" font-family="Times New Roman,serif" font-size="14.00">output:</text>
<polyline fill="none" stroke="black" points="201,-166.5 201,-212.5"/>
<text text-anchor="middle" x="253" y="-197.3" font-family="Times New Roman,serif" font-size="14.00">(None, 25, 128)</text>
<polyline fill="none" stroke="black" points="201,-189.5 305,-189.5"/>
<text text-anchor="middle" x="253" y="-174.3" font-family="Times New Roman,serif" font-size="14.00">(None, 128)</text>
</g>
<!-- 1174113601760&#45;&gt;1174113599840 -->
<g id="edge5" class="edge">
<title>1174113601760&#45;&gt;1174113599840</title>
<path fill="none" stroke="black" d="M152.5,-249.79C152.5,-241.62 152.5,-232.14 152.5,-223.19"/>
<polygon fill="black" stroke="black" points="156,-223.27 152.5,-213.27 149,-223.27 156,-223.27"/>
</g>
<!-- 1174129373536 -->
<g id="node7" class="node">
<title>1174129373536</title>
<polygon fill="none" stroke="black" points="57.5,-83.5 57.5,-129.5 247.5,-129.5 247.5,-83.5 57.5,-83.5"/>
<text text-anchor="middle" x="83" y="-114.3" font-family="Times New Roman,serif" font-size="14.00">dense</text>
<polyline fill="none" stroke="black" points="57.5,-106.5 108.5,-106.5"/>
<text text-anchor="middle" x="83" y="-91.3" font-family="Times New Roman,serif" font-size="14.00">Dense</text>
<polyline fill="none" stroke="black" points="108.5,-83.5 108.5,-129.5"/>
<text text-anchor="middle" x="136.5" y="-114.3" font-family="Times New Roman,serif" font-size="14.00">input:</text>
<polyline fill="none" stroke="black" points="108.5,-106.5 164.5,-106.5"/>
<text text-anchor="middle" x="136.5" y="-91.3" font-family="Times New Roman,serif" font-size="14.00">output:</text>
<polyline fill="none" stroke="black" points="164.5,-83.5 164.5,-129.5"/>
<text text-anchor="middle" x="206" y="-114.3" font-family="Times New Roman,serif" font-size="14.00">(None, 128)</text>
<polyline fill="none" stroke="black" points="164.5,-106.5 247.5,-106.5"/>
<text text-anchor="middle" x="206" y="-91.3" font-family="Times New Roman,serif" font-size="14.00">(None, 128)</text>
</g>
<!-- 1174113599840&#45;&gt;1174129373536 -->
<g id="edge6" class="edge">
<title>1174113599840&#45;&gt;1174129373536</title>
<path fill="none" stroke="black" d="M152.5,-166.79C152.5,-158.62 152.5,-149.14 152.5,-140.19"/>
<polygon fill="black" stroke="black" points="156,-140.27 152.5,-130.27 149,-140.27 156,-140.27"/>
</g>
<!-- 1174129374592 -->
<g id="node8" class="node">
<title>1174129374592</title>
<polygon fill="none" stroke="black" points="51.5,-0.5 51.5,-46.5 253.5,-46.5 253.5,-0.5 51.5,-0.5"/>
<text text-anchor="middle" x="83" y="-31.3" font-family="Times New Roman,serif" font-size="14.00">dense_1</text>
<polyline fill="none" stroke="black" points="51.5,-23.5 114.5,-23.5"/>
<text text-anchor="middle" x="83" y="-8.3" font-family="Times New Roman,serif" font-size="14.00">Dense</text>
<polyline fill="none" stroke="black" points="114.5,-0.5 114.5,-46.5"/>
<text text-anchor="middle" x="142.5" y="-31.3" font-family="Times New Roman,serif" font-size="14.00">input:</text>
<polyline fill="none" stroke="black" points="114.5,-23.5 170.5,-23.5"/>
<text text-anchor="middle" x="142.5" y="-8.3" font-family="Times New Roman,serif" font-size="14.00">output:</text>
<polyline fill="none" stroke="black" points="170.5,-0.5 170.5,-46.5"/>
<text text-anchor="middle" x="212" y="-31.3" font-family="Times New Roman,serif" font-size="14.00">(None, 128)</text>
<polyline fill="none" stroke="black" points="170.5,-23.5 253.5,-23.5"/>
<text text-anchor="middle" x="212" y="-8.3" font-family="Times New Roman,serif" font-size="14.00">(None, 1)</text>
</g>
<!-- 1174129373536&#45;&gt;1174129374592 -->
<g id="edge7" class="edge">
<title>1174129373536&#45;&gt;1174129374592</title>
<path fill="none" stroke="black" d="M152.5,-83.79C152.5,-75.62 152.5,-66.14 152.5,-57.19"/>
<polygon fill="black" stroke="black" points="156,-57.27 152.5,-47.27 149,-57.27 156,-57.27"/>
</g>
</g>
</svg>
